<?xml version="1.0" encoding="UTF-8"?>
<!DOCTYPE svg PUBLIC "-//W3C//DTD SVG 1.1//EN" "http://www.w3.org/Graphics/SVG/1.1/DTD/svg11.dtd">
<!-- Creator: CorelDRAW -->
<svg xmlns="http://www.w3.org/2000/svg" xml:space="preserve" width="1.70666in" height="1.70666in" version="1.1" style="shape-rendering:geometricPrecision; text-rendering:geometricPrecision; image-rendering:optimizeQuality; fill-rule:evenodd; clip-rule:evenodd"
viewBox="0 0 1707 1707"
 xmlns:xlink="http://www.w3.org/1999/xlink">
 <defs>
  <style type="text/css">
   <![CDATA[
    .fil0 {fill:black}
   ]]>
  </style>
 </defs>
 <g id="Layer_x0020_1">
  <metadata id="CorelCorpID_0Corel-Layer"/>
  <g id="_488289480">
   <g>
    <g>
     <g>
      <path class="fil0" d="M1310 1058c-220,0 -397,-177 -397,-397 0,-219 177,-398 397,-398 219,0 396,179 396,398 0,220 -177,397 -396,397zm0 -746c-192,0 -348,157 -348,349 0,192 156,349 348,349 191,0 348,-157 348,-349 0,-192 -157,-349 -348,-349z"/>
     </g>
     <g>
      <path class="fil0" d="M1310 1482c-14,0 -25,-11 -25,-25l0 -424c0,-14 11,-25 25,-25 13,0 25,11 25,25l0 424c0,14 -12,25 -25,25z"/>
     </g>
     <g>
      <path class="fil0" d="M1161 1337c-14,0 -23,-11 -25,-24 0,-14 11,-25 24,-25l298 -1c14,0 25,11 25,25 0,14 -11,25 -25,25l-92 0 -205 0c0,0 0,0 0,0z"/>
     </g>
    </g>
    <g>
     <g>
      <path class="fil0" d="M398 1482c-219,0 -398,-177 -398,-396 0,-219 179,-398 398,-398 220,0 397,179 397,398 0,218 -179,396 -397,396zm0 -746c-192,0 -349,157 -349,350 0,191 157,348 349,348 192,0 349,-157 349,-348 0,-193 -157,-350 -349,-350z"/>
     </g>
     <g>
      <path class="fil0" d="M398 736c-13,0 -25,-11 -25,-25l0 -461c0,-14 12,-25 25,-25 14,0 25,11 25,25l0 463c-1,12 -12,23 -25,23z"/>
     </g>
     <g>
      <path class="fil0" d="M469 344c-5,0 -12,-3 -16,-7l-71 -71c-10,-10 -10,-25 0,-35 10,-9 25,-9 34,0l71 71c10,10 10,25 0,35 -5,4 -12,7 -18,7z"/>
     </g>
     <g>
      <path class="fil0" d="M328 344c-6,0 -13,-3 -17,-7 -10,-10 -10,-25 0,-35l71 -71c10,-9 25,-9 34,0 10,10 10,25 0,35l-70 71c-6,4 -13,7 -18,7z"/>
     </g>
    </g>
   </g>
  </g>
 </g>
</svg>
