<?xml version="1.0" encoding="UTF-8"?>
<svg width="512" height="512" version="1.1" viewBox="0 0 135.47 135.47" xmlns="http://www.w3.org/2000/svg">
 <g transform="matrix(.99999 0 0 .99999 270.92 -.55305)">
  <path d="m-203.33 9.5183a3.1751 3.1751 0 0 0-3.18 3.1747v7.767c-23.63 1.457-44.08 17.479-51.01 40.382a3.1753 3.1753 0 0 0 5.5 2.919c2.38-2.94 5.96-4.644 9.74-4.644 4.13 0 7.96 2.011 10.32 5.395a3.1753 3.1753 0 0 0 2.62 1.365h0.29a3.1753 3.1753 0 0 0 2.62-1.365c2.35-3.384 6.19-5.395 10.29-5.395 3.65 0 7.25 1.622 9.63 4.297v51.366c0 7 6.38 12.28 13.65 12.28h1.12c7.3 0 13.65-5.28 13.65-12.28v-13.38a3.1751 3.1751 0 0 0-3.18-3.179 3.1751 3.1751 0 0 0-3.17 3.179v13.38c0 3.08-2.97 5.93-7.3 5.93h-1.12c-4.31 0-7.3-2.85-7.3-5.93v-51.049c2.38-2.865 6.14-4.614 9.9-4.614 4.12 0 7.96 2.011 10.32 5.395a3.1753 3.1753 0 0 0 2.62 1.365h0.29a3.1753 3.1753 0 0 0 2.62-1.365c2.35-3.384 6.19-5.395 10.29-5.395 3.81 0 7.38 1.704 9.76 4.646a3.1753 3.1753 0 0 0 5.51-2.921c-6.96-22.993-27.55-39.05-51.31-40.397v-7.752a3.1751 3.1751 0 0 0-3.17-3.1747zm0.21 17.18a3.1753 3.1753 0 0 0 0 2e-3c18.89 0.099 35.74 10.702 44.37 26.94-1.75-0.513-3.52-0.873-5.37-0.873-4.92 0-9.58 2-13.07 5.368-3.47-3.368-8.12-5.368-13.07-5.368-4.79 0-9.42 1.86-12.94 5.075-3.52-3.215-8.12-5.075-12.94-5.075-4.92 0-9.58 2-13.07 5.368-3.47-3.368-8.12-5.368-13.07-5.368-1.83 0-3.6 0.357-5.35 0.87 8.6-16.206 25.43-26.799 44.27-26.935a3.1751 3.1751 0 0 0 0.03 2e-3 3.1751 3.1751 0 0 0 0.13-4e-3v0c0.1 0 0.08-1e-3 0.08-2e-3z" style="-inkscape-stroke:none;color:#000000;paint-order:fill markers stroke;stroke-linecap:round;stroke-linejoin:round"/>
 </g>
</svg>
