<?xml version="1.0" encoding="UTF-8"?>
<!DOCTYPE svg PUBLIC "-//W3C//DTD SVG 1.1//EN" "http://www.w3.org/Graphics/SVG/1.1/DTD/svg11.dtd">
<!-- Creator: CorelDRAW -->
<svg xmlns="http://www.w3.org/2000/svg" xml:space="preserve" width="1.70666in" height="1.70666in" version="1.1" style="shape-rendering:geometricPrecision; text-rendering:geometricPrecision; image-rendering:optimizeQuality; fill-rule:evenodd; clip-rule:evenodd"
viewBox="0 0 1706.66 1706.66"
 xmlns:xlink="http://www.w3.org/1999/xlink"
 xmlns:xodm="http://www.corel.com/coreldraw/odm/2003">
 <defs>
  <style type="text/css">
   <![CDATA[
    .fil0 {fill:black}
   ]]>
  </style>
 </defs>
 <g id="Layer_x0020_1">
  <metadata id="CorelCorpID_0Corel-Layer"/>
  <path class="fil0" d="M1596.78 1706.67c-29.44,0 -57.04,-11.4 -77.75,-32.09l-472.83 -472.83c-7.73,-7.75 -7.74,-20.27 0,-28.02l127.49 -127.47c7.74,-7.74 20.28,-7.74 28.01,0l472.83 472.83c68.49,68.52 20.66,187.59 -77.75,187.59z"/>
  <path class="fil0" d="M1123.93 1160.32c-9.64,0 -18.86,-3.82 -25.68,-10.64l-195.04 -195.06c-33.69,-33.69 17.68,-85.01 51.35,-51.34l195.06 195.06c22.81,22.81 6.55,61.99 -25.69,61.99z"/>
  <path class="fil0" d="M559.33 1118.34c-496.96,0 -746.32,-603.04 -395.22,-954.2 350.95,-351 954.18,-101.87 954.18,395.26 0,308.87 -250.09,558.94 -558.96,558.94zm0 -1045.29c-431.65,0 -649.12,524.99 -343.89,830.22 305.23,305.23 830.23,87.77 830.23,-343.89 0,-268.74 -217.6,-486.33 -486.34,-486.33z"/>
  <path class="fil0" d="M853.92 880.89l-589.19 0c-10.93,0 -19.8,-8.87 -19.8,-19.8l0 -69.98c0,-118.34 84.62,-219.29 201.22,-240.03 8.21,-1.45 16.56,2.43 20.7,9.74 40.69,71.85 144.39,71.74 184.98,0 4.14,-7.32 12.51,-11.2 20.7,-9.74 116.59,20.74 201.22,121.69 201.22,240.03l0 69.98c-0.01,10.93 -8.87,19.8 -19.81,19.8z"/>
  <path class="fil0" d="M558.61 529.47c-80.39,0 -145.79,-65.4 -145.79,-145.79 0,-80.39 65.41,-145.8 145.79,-145.8 80.39,0 145.81,65.4 145.81,145.8 0,80.4 -65.41,145.79 -145.81,145.79z"/>
 </g>
</svg>
